<?xml version="1.0" encoding="utf-8"?>
<!DOCTYPE svg PUBLIC "-//W3C//DTD SVG 1.1//EN" "http://www.w3.org/Graphics/SVG/1.1/DTD/svg11.dtd">
<svg version="1.1" xmlns="http://www.w3.org/2000/svg" xmlns:xlink="http://www.w3.org/1999/xlink" width="100" height="20" viewBox="0 0 100 20">
<defs>
<symbol  id="icon-categorical">
	<title>categorical</title>
	<path d="M3.746,1.297v5.044h12.508V1.297H3.746z M14.869,4.958H5.131V2.68h9.738V4.958z"/>
	<path d="M3.746,18.703h12.508V13.66H3.746V18.703z M5.131,15.043h9.738v2.277H5.131V15.043z"/>
	<path d="M3.746,12.523h12.508V7.479H3.746V12.523z M5.131,8.862h9.738v2.278H5.131V8.862z"/>
</symbol>
<symbol  id="icon-matrix">
	<title>matrix</title>
	<path d="M1.297,1.297v17.406h17.407V1.297H1.297z M7.982,11.932V8.069h3.862v3.863H7.982z M11.845,13.314v4.006H7.982v-4.006H11.845
	z M2.681,8.069H6.6v3.863H2.681V8.069z M7.982,6.686V2.68h3.862v4.005H7.982z M13.229,8.069h4.092v3.863h-4.092V8.069z M17.32,6.686
	h-4.092V2.68h4.092V6.686z M6.6,2.68v4.005H2.681V2.68H6.6z M2.681,13.314H6.6v4.006H2.681V13.314z M13.229,17.32v-4.006h4.092
	v4.006H13.229z"/>
</symbol>
<symbol  id="icon-numerical">
	<title>numerical</title>
	<path d="M17.867,1.297H2.132v5.504v1.268v4.093v1.225v5.316h7.494v-5.316h4.495V8.069h3.746V1.297z M8.243,17.32H3.516v-3.775h4.727
	V17.32z M12.738,12.003H3.516V8.185h9.223V12.003z M16.484,6.686H3.516V2.68h12.969V6.686z"/>
</symbol>
<symbol  id="icon-string">
	<title>string</title>
	<path d="M2.709,12.465c0.608-1.999,0.944-4.121,1.849-6.018c0.38,0.959,0.406,2.608,0.46,3.312
		c0.068,0.89,0.16,1.771,0.313,2.649c0.592,3.375,2.697,1.166,3.362-0.718c0.324-0.913,0.569-1.848,0.991-2.724
		c-0.089,0.184,0.481,2.537,0.529,3.067c0.073,0.803,0.353,1.531,1.245,1.52c1.423-0.021,2.328-2.51,2.812-3.471
		c0.196-0.39,0.949,2.485,1.019,2.604c0.306,0.521,0.659,0.575,1.209,0.585c0.222,0.003,0.449-0.125,0.557-0.32
		c0.688-1.244,0.695-2.753,1.419-3.989c0.421-0.72-0.694-1.369-1.113-0.65c-0.524,0.895-0.781,1.912-1.036,2.909
		c-0.156,0.612-0.313-0.148-0.511-0.95c-0.215-0.872-1.522-2.381-2.384-1.208c-0.491,0.668-1.817,4.181-1.971,2.475
		c-0.091-1.021-0.122-1.988-0.436-2.972C10.684,7.501,9.666,7.071,8.86,7.887C8.35,8.405,6.674,12.489,6.7,12.554
		c-0.86-2.211-0.114-4.791-1.123-6.988c-1.56-3.395-3.966,6.077-4.112,6.557C1.222,12.92,2.468,13.259,2.709,12.465L2.709,12.465z"
		/>
</symbol>
</defs>

<g fill="#000000">
	<use xlink:href="#icon-categorical" transform="translate(0 0)"></use>
	<use xlink:href="#icon-matrix" transform="translate(25 0)"></use>
	<use xlink:href="#icon-numerical" transform="translate(50 0)"></use>
	<use xlink:href="#icon-string" transform="translate(75 0)"></use>
</g>

</svg>
