<?xml version="1.0" encoding="utf-8"?>
<!-- Generator: Adobe Illustrator 16.0.0, SVG Export Plug-In . SVG Version: 6.00 Build 0)  -->
<!DOCTYPE svg PUBLIC "-//W3C//DTD SVG 1.1//EN" "http://www.w3.org/Graphics/SVG/1.1/DTD/svg11.dtd">
<svg version="1.1" id="Layer_1" xmlns="http://www.w3.org/2000/svg" xmlns:xlink="http://www.w3.org/1999/xlink" x="0px" y="0px"
	 width="20px" height="20px" viewBox="0 0 20 20" enable-background="new 0 0 20 20" xml:space="preserve">
<g>
	<path fill="#000100" d="M2.709,12.465c0.608-1.999,0.944-4.121,1.849-6.018c0.38,0.959,0.406,2.608,0.46,3.312
		c0.068,0.89,0.16,1.771,0.313,2.649c0.592,3.375,2.697,1.166,3.362-0.718c0.324-0.913,0.569-1.848,0.991-2.724
		c-0.089,0.184,0.481,2.537,0.529,3.067c0.073,0.803,0.353,1.531,1.245,1.52c1.423-0.021,2.328-2.51,2.812-3.471
		c0.196-0.39,0.949,2.485,1.019,2.604c0.306,0.521,0.659,0.575,1.209,0.585c0.222,0.003,0.449-0.125,0.557-0.32
		c0.688-1.244,0.695-2.753,1.419-3.989c0.421-0.72-0.694-1.369-1.113-0.65c-0.524,0.895-0.781,1.912-1.036,2.909
		c-0.156,0.612-0.313-0.148-0.511-0.95c-0.215-0.872-1.522-2.381-2.384-1.208c-0.491,0.668-1.817,4.181-1.971,2.475
		c-0.091-1.021-0.122-1.988-0.436-2.972C10.684,7.501,9.666,7.071,8.86,7.887C8.35,8.405,6.674,12.489,6.7,12.554
		c-0.86-2.211-0.114-4.791-1.123-6.988c-1.56-3.395-3.966,6.077-4.112,6.557C1.222,12.92,2.468,13.259,2.709,12.465L2.709,12.465z"
		/>
</g>
</svg>
