<svg xmlns="http://www.w3.org/2000/svg" viewBox="0 0 16 16" height="16" width="16"><path d="m2.7 12.5c0.6-2 0.9-4.1 1.8-6 0.4 1 0.4 2.6 0.5 3.3 0.1 0.9 0.2 1.8 0.3 2.6 0.6 3.4 2.7 1.2 3.4-0.7 0.3-0.9 0.6-1.8 1-2.7-0.1 0.2 0.5 2.5 0.5 3.1 0.1 0.8 0.4 1.5 1.2 1.5 1.4 0 2.3-2.5 2.8-3.5 0.2-0.4 0.9 2.5 1 2.6 0.3 0.5 0.7 0.6 1.2 0.6 0.2 0 0.4-0.1 0.6-0.3 0.7-1.2 0.7-2.8 1.4-4 0.4-0.7-0.7-1.4-1.1-0.6-0.5 0.9-0.8 1.9-1 2.9-0.2 0.6-0.3-0.1-0.5-0.9C15.6 9.4 14.3 7.9 13.4 9.1 12.9 9.7 11.6 13.2 11.5 11.5 11.4 10.5 11.3 9.6 11 8.6 10.7 7.5 9.7 7.1 8.9 7.9 8.4 8.4 6.7 12.5 6.7 12.6 5.8 10.3 6.6 7.8 5.6 5.6 4 2.2 1.6 11.6 1.5 12.1 1.2 12.9 2.5 13.3 2.7 12.5Z" fill="#000100"/></svg>