<?xml version="1.0" encoding="utf-8"?>
<!-- Generator: Adobe Illustrator 16.0.0, SVG Export Plug-In . SVG Version: 6.00 Build 0)  -->
<!DOCTYPE svg PUBLIC "-//W3C//DTD SVG 1.1//EN" "http://www.w3.org/Graphics/SVG/1.1/DTD/svg11.dtd">
<svg version="1.1" id="Layer_1" xmlns="http://www.w3.org/2000/svg" xmlns:xlink="http://www.w3.org/1999/xlink" x="0px" y="0px"
	 width="20px" height="20px" viewBox="0 0 20 20" enable-background="new 0 0 20 20" xml:space="preserve">
<path d="M1.297,1.297v17.406h17.407V1.297H1.297z M7.982,11.932V8.069h3.862v3.863H7.982z M11.845,13.314v4.006H7.982v-4.006H11.845
	z M2.681,8.069H6.6v3.863H2.681V8.069z M7.982,6.686V2.68h3.862v4.005H7.982z M13.229,8.069h4.092v3.863h-4.092V8.069z M17.32,6.686
	h-4.092V2.68h4.092V6.686z M6.6,2.68v4.005H2.681V2.68H6.6z M2.681,13.314H6.6v4.006H2.681V13.314z M13.229,17.32v-4.006h4.092
	v4.006H13.229z"/>
</svg>
